<svg width="410" height="100" viewBox="0 0 410 100" fill="none" xmlns="http://www.w3.org/2000/svg">
<path d="M19.88 64.683C29.9129 82.6487 49.8178 88.6454 66.7733 79.0214C81.838 70.4706 87.9751 51.9529 80.9789 36.1494C80.7192 35.5629 80.4274 34.9907 80.1532 34.4106C77.4174 28.6229 78.5037 25.0456 84.0141 21.694C88.02 19.2575 90.7055 19.6662 92.7954 23.8361C95.1281 28.4907 97.5392 33.3019 98.6763 38.3241C104.896 65.7974 88.6523 91.7787 61.3524 98.6026C34.7994 105.24 6.59896 87.5118 1.10943 60.7313C-4.60234 32.8666 12.2437 6.81666 40.0588 1.05528C52.6214 -1.54683 64.6329 0.721428 75.7332 7.21673C80.2881 9.88198 81.1668 12.8363 78.8968 16.774C76.03 21.7468 71.135 23.7609 67.0348 21.3039C45.9499 8.66925 21.1045 22.1068 17.0697 43.8152C15.748 50.9268 16.4015 57.9018 19.88 64.683Z" fill="#0BD3AC"/>
<path d="M161.576 29.548C165.608 29.548 169.192 30.444 172.328 32.236C175.464 33.964 177.896 36.556 179.624 40.012C181.416 43.404 182.312 47.5 182.312 52.3V83.5H168.872V54.124C168.872 49.9 167.816 46.668 165.704 44.428C163.592 42.124 160.712 40.972 157.064 40.972C153.352 40.972 150.408 42.124 148.232 44.428C146.12 46.668 145.064 49.9 145.064 54.124V83.5H131.624V12.46H145.064V36.94C146.792 34.636 149.096 32.844 151.976 31.564C154.856 30.22 158.056 29.548 161.576 29.548ZM191.637 56.716C191.637 51.34 192.693 46.572 194.805 42.412C196.981 38.252 199.893 35.052 203.541 32.812C207.253 30.572 211.381 29.452 215.925 29.452C219.893 29.452 223.349 30.252 226.293 31.852C229.301 33.452 231.701 35.468 233.493 37.9V30.316H247.029V83.5H233.493V75.724C231.765 78.22 229.365 80.3 226.293 81.964C223.285 83.564 219.797 84.364 215.829 84.364C211.349 84.364 207.253 83.212 203.541 80.908C199.893 78.604 196.981 75.372 194.805 71.212C192.693 66.988 191.637 62.156 191.637 56.716ZM233.493 56.908C233.493 53.644 232.853 50.86 231.573 48.556C230.293 46.188 228.565 44.396 226.389 43.18C224.213 41.9 221.877 41.26 219.381 41.26C216.885 41.26 214.581 41.868 212.469 43.084C210.357 44.3 208.629 46.092 207.285 48.46C206.005 50.764 205.365 53.516 205.365 56.716C205.365 59.916 206.005 62.732 207.285 65.164C208.629 67.532 210.357 69.356 212.469 70.636C214.645 71.916 216.949 72.556 219.381 72.556C221.877 72.556 224.213 71.948 226.389 70.732C228.565 69.452 230.293 67.66 231.573 65.356C232.853 62.988 233.493 60.172 233.493 56.908ZM273.595 38.092C275.323 35.532 277.691 33.452 280.699 31.852C283.771 30.252 287.259 29.452 291.163 29.452C295.707 29.452 299.803 30.572 303.451 32.812C307.163 35.052 310.075 38.252 312.187 42.412C314.363 46.508 315.451 51.276 315.451 56.716C315.451 62.156 314.363 66.988 312.187 71.212C310.075 75.372 307.163 78.604 303.451 80.908C299.803 83.212 295.707 84.364 291.163 84.364C287.195 84.364 283.707 83.596 280.699 82.06C277.755 80.46 275.387 78.412 273.595 75.916V83.5H260.155V12.46H273.595V38.092ZM301.723 56.716C301.723 53.516 301.051 50.764 299.707 48.46C298.427 46.092 296.699 44.3 294.523 43.084C292.411 41.868 290.107 41.26 287.611 41.26C285.179 41.26 282.875 41.9 280.699 43.18C278.587 44.396 276.859 46.188 275.515 48.556C274.235 50.924 273.595 53.708 273.595 56.908C273.595 60.108 274.235 62.892 275.515 65.26C276.859 67.628 278.587 69.452 280.699 70.732C282.875 71.948 285.179 72.556 287.611 72.556C290.107 72.556 292.411 71.916 294.523 70.636C296.699 69.356 298.427 67.532 299.707 65.164C301.051 62.796 301.723 59.98 301.723 56.716ZM332.034 23.98C329.666 23.98 327.682 23.244 326.082 21.772C324.546 20.236 323.778 18.348 323.778 16.108C323.778 13.868 324.546 12.012 326.082 10.54C327.682 9.004 329.666 8.236 332.034 8.236C334.402 8.236 336.354 9.004 337.89 10.54C339.49 12.012 340.29 13.868 340.29 16.108C340.29 18.348 339.49 20.236 337.89 21.772C336.354 23.244 334.402 23.98 332.034 23.98ZM338.658 30.316V83.5H325.218V30.316H338.658ZM381.313 83.5L370.369 66.988L360.673 83.5H346.273L363.649 56.812L346.081 30.316H361.249L372.097 46.732L381.889 30.316H396.289L378.817 56.812L396.481 83.5H381.313Z" fill="#071A2A"/>
</svg>
