<svg width="285" height="262" viewBox="0 0 285 262" fill="none" xmlns="http://www.w3.org/2000/svg">
<path d="M97.32 97.0245C112.369 123.973 142.227 132.968 167.66 118.532C190.257 105.706 199.463 77.9294 188.968 54.2241C188.579 53.3444 188.141 52.486 187.73 51.6159C183.626 42.9343 185.256 37.5683 193.521 32.541C199.53 28.8863 203.558 29.4992 206.693 35.7541C210.192 42.736 213.809 49.9529 215.514 57.4861C224.845 98.6962 200.478 137.668 159.529 147.904C119.699 157.86 77.3984 131.268 69.1642 91.0969C60.5965 49.2998 85.8656 10.225 127.588 1.58291C146.432 -2.32024 164.449 1.08214 181.1 10.8251C187.932 14.823 189.25 19.2544 185.845 25.1609C181.545 32.6202 174.203 35.6413 168.052 31.9558C136.425 13.0039 99.1567 33.1602 93.1046 65.7227C91.1219 76.3902 92.1023 86.8527 97.32 97.0245Z" fill="#0BD3AC"/>
<path d="M36.576 198.048C40.608 198.048 44.192 198.944 47.328 200.736C50.464 202.464 52.896 205.056 54.624 208.512C56.416 211.904 57.312 216 57.312 220.8V252H43.872V222.624C43.872 218.4 42.816 215.168 40.704 212.928C38.592 210.624 35.712 209.472 32.064 209.472C28.352 209.472 25.408 210.624 23.232 212.928C21.12 215.168 20.064 218.4 20.064 222.624V252H6.624V180.96H20.064V205.44C21.792 203.136 24.096 201.344 26.976 200.064C29.856 198.72 33.056 198.048 36.576 198.048ZM66.6367 225.216C66.6367 219.84 67.6927 215.072 69.8047 210.912C71.9808 206.752 74.8928 203.552 78.5408 201.312C82.2528 199.072 86.3808 197.952 90.9248 197.952C94.8928 197.952 98.3488 198.752 101.293 200.352C104.301 201.952 106.701 203.968 108.493 206.4V198.816H122.029V252H108.493V244.224C106.765 246.72 104.365 248.8 101.293 250.464C98.2848 252.064 94.7968 252.864 90.8288 252.864C86.3488 252.864 82.2528 251.712 78.5408 249.408C74.8928 247.104 71.9808 243.872 69.8047 239.712C67.6927 235.488 66.6367 230.656 66.6367 225.216ZM108.493 225.408C108.493 222.144 107.853 219.36 106.573 217.056C105.293 214.688 103.565 212.896 101.389 211.68C99.2128 210.4 96.8768 209.76 94.3808 209.76C91.8848 209.76 89.5808 210.368 87.4688 211.584C85.3568 212.8 83.6288 214.592 82.2848 216.96C81.0048 219.264 80.3648 222.016 80.3648 225.216C80.3648 228.416 81.0048 231.232 82.2848 233.664C83.6288 236.032 85.3568 237.856 87.4688 239.136C89.6448 240.416 91.9488 241.056 94.3808 241.056C96.8768 241.056 99.2128 240.448 101.389 239.232C103.565 237.952 105.293 236.16 106.573 233.856C107.853 231.488 108.493 228.672 108.493 225.408ZM148.595 206.592C150.323 204.032 152.691 201.952 155.699 200.352C158.771 198.752 162.259 197.952 166.163 197.952C170.707 197.952 174.803 199.072 178.451 201.312C182.163 203.552 185.075 206.752 187.187 210.912C189.363 215.008 190.451 219.776 190.451 225.216C190.451 230.656 189.363 235.488 187.187 239.712C185.075 243.872 182.163 247.104 178.451 249.408C174.803 251.712 170.707 252.864 166.163 252.864C162.195 252.864 158.707 252.096 155.699 250.56C152.755 248.96 150.387 246.912 148.595 244.416V252H135.155V180.96H148.595V206.592ZM176.723 225.216C176.723 222.016 176.051 219.264 174.707 216.96C173.427 214.592 171.699 212.8 169.523 211.584C167.411 210.368 165.107 209.76 162.611 209.76C160.179 209.76 157.875 210.4 155.699 211.68C153.587 212.896 151.859 214.688 150.515 217.056C149.235 219.424 148.595 222.208 148.595 225.408C148.595 228.608 149.235 231.392 150.515 233.76C151.859 236.128 153.587 237.952 155.699 239.232C157.875 240.448 160.179 241.056 162.611 241.056C165.107 241.056 167.411 240.416 169.523 239.136C171.699 237.856 173.427 236.032 174.707 233.664C176.051 231.296 176.723 228.48 176.723 225.216ZM207.034 192.48C204.666 192.48 202.682 191.744 201.082 190.272C199.546 188.736 198.778 186.848 198.778 184.608C198.778 182.368 199.546 180.512 201.082 179.04C202.682 177.504 204.666 176.736 207.034 176.736C209.402 176.736 211.354 177.504 212.89 179.04C214.49 180.512 215.29 182.368 215.29 184.608C215.29 186.848 214.49 188.736 212.89 190.272C211.354 191.744 209.402 192.48 207.034 192.48ZM213.658 198.816V252H200.218V198.816H213.658ZM256.313 252L245.369 235.488L235.673 252H221.273L238.649 225.312L221.081 198.816H236.249L247.097 215.232L256.889 198.816H271.289L253.817 225.312L271.481 252H256.313Z" fill="#071A2A"/>
</svg>
